<svg xmlns="http://www.w3.org/2000/svg" viewBox="0 0 512 512" width="64" height="64">
  <defs>
    <linearGradient id="gradient" x1="0%" y1="0%" x2="0%" y2="100%">
      <stop offset="0%" style="stop-color:#00ff88;stop-opacity:1" />
      <stop offset="100%" style="stop-color:#0088ff;stop-opacity:1" />
    </linearGradient>
  </defs>
  
  <!-- Background rounded rectangle -->
  <rect x="20" y="20" width="472" height="472" rx="80" ry="80" fill="url(#gradient)" />
  
  <!-- White background for content -->
  <rect x="60" y="60" width="392" height="392" rx="40" ry="40" fill="white" />
  
  <!-- Left 'p' -->
  <g fill="url(#gradient)">
    <!-- Left p stem -->
    <rect x="80" y="120" width="40" height="280" />
    <!-- Left p top curve -->
    <path d="M 80 120 L 80 200 L 160 200 Q 200 200 200 160 Q 200 120 160 120 Z" />
  </g>
  
  <!-- Center circle (phi symbol) -->
  <g fill="url(#gradient)">
    <!-- Vertical line through circle -->
    <rect x="236" y="100" width="40" height="320" />
    <!-- Circle -->
    <circle cx="256" cy="256" r="80" fill="none" stroke="url(#gradient)" stroke-width="40" />
  </g>
  
  <!-- Right 'q' -->
  <g fill="url(#gradient)">
    <!-- Right q stem -->
    <rect x="392" y="120" width="40" height="280" />
    <!-- Right q bottom curve -->
    <path d="M 432 320 L 432 400 L 352 400 Q 312 400 312 360 Q 312 320 352 320 Z" />
  </g>
</svg>